<?xml version="1.0" encoding="utf-8"?>
<!-- Generator: Adobe Illustrator 27.8.1, SVG Export Plug-In . SVG Version: 6.00 Build 0)  -->
<svg version="1.1" id="Layer_1" xmlns="http://www.w3.org/2000/svg" xmlns:xlink="http://www.w3.org/1999/xlink" x="0px" y="0px"
	 viewBox="0 0 142 142" style="enable-background:new 0 0 142 142;" xml:space="preserve">
<defs>
	<filter id="Adobe_OpacityMaskFilter" filterUnits="userSpaceOnUse" x="-13.69" y="-18.31" width="169.39" height="159.81">
		<feColorMatrix  type="matrix" values="1 0 0 0 0  0 1 0 0 0  0 0 1 0 0  0 0 0 1 0"/>
	</filter>
</defs>
<mask maskUnits="userSpaceOnUse" x="-13.69" y="-18.31" width="169.39" height="159.81" id="mask0_2109_14062_00000013873419215998415690000005916408368788774064_">
	<rect x="0.07" y="-0.73" class="st0" width="142.24" height="142.24"/>
</mask>
<g class="st1">
	<circle class="st2" cx="81.13" cy="126.22" r="4.6"/>
	<circle class="st2" cx="0.12" cy="126.22" r="4.6"/>
	<circle class="st2" cx="101.38" cy="126.22" r="4.6"/>
	<circle class="st2" cx="20.37" cy="126.22" r="4.6"/>
	<circle class="st2" cx="121.63" cy="126.22" r="4.6"/>
	<circle class="st2" cx="40.62" cy="126.22" r="4.6"/>
	<circle class="st2" cx="141.88" cy="126.22" r="4.6"/>
	<circle class="st2" cx="60.87" cy="126.22" r="4.6"/>
	<circle class="st2" cx="81.13" cy="139.85" r="1.66"/>
	<circle class="st2" cx="0.12" cy="139.85" r="1.66"/>
	<circle class="st2" cx="101.38" cy="139.85" r="1.66"/>
	<circle class="st2" cx="20.37" cy="139.85" r="1.66"/>
	<circle class="st2" cx="121.63" cy="139.85" r="1.66"/>
	<circle class="st2" cx="40.62" cy="139.85" r="1.66"/>
	<circle class="st2" cx="141.88" cy="139.85" r="1.66"/>
	<circle class="st2" cx="60.87" cy="139.85" r="1.66"/>
	<ellipse class="st2" cx="81.13" cy="107.08" rx="6.44" ry="6.44"/>
	<ellipse class="st2" cx="0.12" cy="107.08" rx="6.44" ry="6.44"/>
	<ellipse class="st2" cx="101.38" cy="107.08" rx="6.44" ry="6.44"/>
	<ellipse class="st2" cx="20.37" cy="107.08" rx="6.44" ry="6.44"/>
	<ellipse class="st2" cx="121.63" cy="107.08" rx="6.44" ry="6.44"/>
	<ellipse class="st2" cx="40.62" cy="107.08" rx="6.44" ry="6.44"/>
	<ellipse class="st2" cx="141.88" cy="107.08" rx="6.44" ry="6.44"/>
	<ellipse class="st2" cx="60.87" cy="107.08" rx="6.44" ry="6.44"/>
	<circle class="st2" cx="81.13" cy="87.93" r="8.29"/>
	<circle class="st2" cx="0.12" cy="87.93" r="8.29"/>
	<circle class="st2" cx="101.38" cy="87.93" r="8.29"/>
	<circle class="st2" cx="20.37" cy="87.93" r="8.29"/>
	<circle class="st2" cx="121.63" cy="87.93" r="8.29"/>
	<circle class="st2" cx="40.62" cy="87.93" r="8.29"/>
	<circle class="st2" cx="141.88" cy="87.93" r="8.29"/>
	<circle class="st2" cx="60.87" cy="87.93" r="8.29"/>
	<circle class="st2" cx="81.13" cy="68.78" r="10.13"/>
	<circle class="st2" cx="0.12" cy="68.78" r="10.13"/>
	<circle class="st2" cx="101.38" cy="68.78" r="10.13"/>
	<circle class="st2" cx="20.37" cy="68.78" r="10.13"/>
	<circle class="st2" cx="121.63" cy="68.78" r="10.13"/>
	<circle class="st2" cx="40.62" cy="68.78" r="10.13"/>
	<circle class="st2" cx="141.88" cy="68.78" r="10.13"/>
	<circle class="st2" cx="60.87" cy="68.78" r="10.13"/>
	<circle class="st2" cx="81.13" cy="52.21" r="11.97"/>
	<circle class="st2" cx="0.12" cy="52.21" r="11.97"/>
	<circle class="st2" cx="101.38" cy="52.21" r="11.97"/>
	<circle class="st2" cx="20.37" cy="52.21" r="11.97"/>
	<circle class="st2" cx="121.63" cy="52.21" r="11.97"/>
	<circle class="st2" cx="40.62" cy="52.21" r="11.97"/>
	<circle class="st2" cx="141.88" cy="52.21" r="11.97"/>
	<circle class="st2" cx="60.87" cy="52.21" r="11.97"/>
	<circle class="st2" cx="81.13" cy="32.69" r="13.81"/>
	<circle class="st2" cx="0.12" cy="32.69" r="13.81"/>
	<circle class="st2" cx="101.38" cy="32.69" r="13.81"/>
	<circle class="st2" cx="20.37" cy="32.69" r="13.81"/>
	<circle class="st2" cx="121.63" cy="32.69" r="13.81"/>
	<circle class="st2" cx="40.62" cy="32.69" r="13.81"/>
	<circle class="st2" cx="141.88" cy="32.69" r="13.81"/>
	<circle class="st2" cx="60.87" cy="32.69" r="13.81"/>
	<rect x="-13.69" y="-18.31" class="st2" width="169.38" height="50.82"/>
</g>
</svg>
