<svg width="381" height="107" viewBox="0 0 381 107" fill="none" xmlns="http://www.w3.org/2000/svg">
<mask id="mask0_2071_13619" style="mask-type:alpha" maskUnits="userSpaceOnUse" x="0" y="0" width="466" height="107">
<path d="M465 0H53.5002C23.953 0 0.000244141 23.9528 0.000244141 53.5C0.000244141 83.0472 23.953 107 53.5002 107H465V0Z" fill="#D9D9D9"/>
</mask>
<g mask="url(#mask0_2071_13619)">
<g opacity="0.2">
<mask id="mask1_2071_13619" style="mask-type:alpha" maskUnits="userSpaceOnUse" x="47" y="-2" width="56" height="56">
<rect width="55.1" height="55.1" transform="matrix(-1 0 0 1 102.2 -1.60059)" fill="#BEBEBE"/>
</mask>
<g mask="url(#mask1_2071_13619)">
<circle cx="8.49144" cy="8.49144" r="8.49144" transform="matrix(-1 0 0 1 110.503 -9.90332)" fill="#BEBEBE"/>
<circle cx="8.49144" cy="8.49144" r="8.49144" transform="matrix(-1 0 0 1 55.0255 -9.90332)" fill="#BEBEBE"/>
<circle cx="8.49144" cy="8.49144" r="8.49144" transform="matrix(-1 0 0 1 73.5179 -9.90332)" fill="#BEBEBE"/>
<circle cx="8.49144" cy="8.49144" r="8.49144" transform="matrix(-1 0 0 1 92.0104 -9.90332)" fill="#BEBEBE"/>
<circle cx="8.49144" cy="8.49144" r="8.49144" transform="matrix(-1 0 0 1 110.503 45.5742)" fill="#BEBEBE"/>
<circle cx="8.49144" cy="8.49144" r="8.49144" transform="matrix(-1 0 0 1 55.0255 45.5742)" fill="#BEBEBE"/>
<circle cx="8.49144" cy="8.49144" r="8.49144" transform="matrix(-1 0 0 1 73.5179 45.5742)" fill="#BEBEBE"/>
<circle cx="8.49144" cy="8.49144" r="8.49144" transform="matrix(-1 0 0 1 92.0104 45.5742)" fill="#BEBEBE"/>
<circle cx="8.49144" cy="8.49144" r="8.49144" transform="matrix(-1 0 0 1 110.503 27.082)" fill="#BEBEBE"/>
<circle cx="8.49144" cy="8.49144" r="8.49144" transform="matrix(-1 0 0 1 55.0255 27.082)" fill="#BEBEBE"/>
<circle cx="8.49144" cy="8.49144" r="8.49144" transform="matrix(-1 0 0 1 73.5179 27.082)" fill="#BEBEBE"/>
<circle cx="8.49144" cy="8.49144" r="8.49144" transform="matrix(-1 0 0 1 92.0104 27.082)" fill="#BEBEBE"/>
<circle cx="8.49144" cy="8.49144" r="8.49144" transform="matrix(-1 0 0 1 110.503 8.58984)" fill="#BEBEBE"/>
<circle cx="8.49144" cy="8.49144" r="8.49144" transform="matrix(-1 0 0 1 55.0255 8.58984)" fill="#BEBEBE"/>
<circle cx="8.49144" cy="8.49144" r="8.49144" transform="matrix(-1 0 0 1 73.5179 8.58984)" fill="#BEBEBE"/>
<circle cx="8.49144" cy="8.49144" r="8.49144" transform="matrix(-1 0 0 1 92.0104 8.58984)" fill="#BEBEBE"/>
</g>
<mask id="mask2_2071_13619" style="mask-type:alpha" maskUnits="userSpaceOnUse" x="47" y="53" width="56" height="56">
<rect width="55.1" height="55.1" transform="matrix(-1 0 0 1 102.2 53.499)" fill="#BEBEBE"/>
</mask>
<g mask="url(#mask2_2071_13619)">
<circle cx="8.49144" cy="8.49144" r="8.49144" transform="matrix(-1 0 0 1 110.503 45.1963)" fill="#BEBEBE"/>
<circle cx="8.49144" cy="8.49144" r="8.49144" transform="matrix(-1 0 0 1 55.0255 45.1963)" fill="#BEBEBE"/>
<circle cx="8.49144" cy="8.49144" r="8.49144" transform="matrix(-1 0 0 1 73.5179 45.1963)" fill="#BEBEBE"/>
<circle cx="8.49144" cy="8.49144" r="8.49144" transform="matrix(-1 0 0 1 92.0104 45.1963)" fill="#BEBEBE"/>
<circle cx="8.49144" cy="8.49144" r="8.49144" transform="matrix(-1 0 0 1 110.503 100.674)" fill="#BEBEBE"/>
<circle cx="8.49144" cy="8.49144" r="8.49144" transform="matrix(-1 0 0 1 55.0255 100.674)" fill="#BEBEBE"/>
<circle cx="8.49144" cy="8.49144" r="8.49144" transform="matrix(-1 0 0 1 73.5179 100.674)" fill="#BEBEBE"/>
<circle cx="8.49144" cy="8.49144" r="8.49144" transform="matrix(-1 0 0 1 92.0104 100.674)" fill="#BEBEBE"/>
<circle cx="8.49144" cy="8.49144" r="8.49144" transform="matrix(-1 0 0 1 110.503 82.1816)" fill="#BEBEBE"/>
<circle cx="8.49144" cy="8.49144" r="8.49144" transform="matrix(-1 0 0 1 55.0255 82.1816)" fill="#BEBEBE"/>
<circle cx="8.49144" cy="8.49144" r="8.49144" transform="matrix(-1 0 0 1 73.5179 82.1816)" fill="#BEBEBE"/>
<circle cx="8.49144" cy="8.49144" r="8.49144" transform="matrix(-1 0 0 1 92.0104 82.1816)" fill="#BEBEBE"/>
<circle cx="8.49144" cy="8.49144" r="8.49144" transform="matrix(-1 0 0 1 110.503 63.6885)" fill="#BEBEBE"/>
<circle cx="8.49144" cy="8.49144" r="8.49144" transform="matrix(-1 0 0 1 55.0255 63.6885)" fill="#BEBEBE"/>
<circle cx="8.49144" cy="8.49144" r="8.49144" transform="matrix(-1 0 0 1 73.5179 63.6885)" fill="#BEBEBE"/>
<circle cx="8.49144" cy="8.49144" r="8.49144" transform="matrix(-1 0 0 1 92.0104 63.6885)" fill="#BEBEBE"/>
</g>
<mask id="mask3_2071_13619" style="mask-type:alpha" maskUnits="userSpaceOnUse" x="-8" y="-2" width="56" height="56">
<rect width="55.1" height="55.1" transform="matrix(-1 0 0 1 47.1002 -1.60059)" fill="#BEBEBE"/>
</mask>
<g mask="url(#mask3_2071_13619)">
<circle cx="8.49144" cy="8.49144" r="8.49144" transform="matrix(-1 0 0 1 55.4028 -9.90332)" fill="#BEBEBE"/>
<circle cx="8.49144" cy="8.49144" r="8.49144" transform="matrix(-1 0 0 1 18.418 -9.90332)" fill="#BEBEBE"/>
<circle cx="8.49144" cy="8.49144" r="8.49144" transform="matrix(-1 0 0 1 36.9104 -9.90332)" fill="#BEBEBE"/>
<circle cx="8.49144" cy="8.49144" r="8.49144" transform="matrix(-1 0 0 1 55.403 45.5742)" fill="#BEBEBE"/>
<circle cx="8.49144" cy="8.49144" r="8.49144" transform="matrix(-1 0 0 1 18.418 45.5742)" fill="#BEBEBE"/>
<circle cx="8.49144" cy="8.49144" r="8.49144" transform="matrix(-1 0 0 1 36.9104 45.5742)" fill="#BEBEBE"/>
<circle cx="8.49144" cy="8.49144" r="8.49144" transform="matrix(-1 0 0 1 55.403 27.082)" fill="#BEBEBE"/>
<circle cx="8.49144" cy="8.49144" r="8.49144" transform="matrix(-1 0 0 1 18.418 27.082)" fill="#BEBEBE"/>
<circle cx="8.49144" cy="8.49144" r="8.49144" transform="matrix(-1 0 0 1 36.9104 27.082)" fill="#BEBEBE"/>
<circle cx="8.49144" cy="8.49144" r="8.49144" transform="matrix(-1 0 0 1 55.403 8.58984)" fill="#BEBEBE"/>
<circle cx="8.49144" cy="8.49144" r="8.49144" transform="matrix(-1 0 0 1 18.418 8.58984)" fill="#BEBEBE"/>
<circle cx="8.49144" cy="8.49144" r="8.49144" transform="matrix(-1 0 0 1 36.9104 8.58984)" fill="#BEBEBE"/>
</g>
<mask id="mask4_2071_13619" style="mask-type:alpha" maskUnits="userSpaceOnUse" x="-8" y="53" width="56" height="56">
<rect width="55.1" height="55.1" transform="matrix(-1 0 0 1 47.1002 53.499)" fill="#BEBEBE"/>
</mask>
<g mask="url(#mask4_2071_13619)">
<circle cx="8.49144" cy="8.49144" r="8.49144" transform="matrix(-1 0 0 1 55.4028 45.1963)" fill="#BEBEBE"/>
<circle cx="8.49144" cy="8.49144" r="8.49144" transform="matrix(-1 0 0 1 18.418 45.1963)" fill="#BEBEBE"/>
<circle cx="8.49144" cy="8.49144" r="8.49144" transform="matrix(-1 0 0 1 36.9104 45.1963)" fill="#BEBEBE"/>
<circle cx="8.49144" cy="8.49144" r="8.49144" transform="matrix(-1 0 0 1 55.403 100.674)" fill="#BEBEBE"/>
<circle cx="8.49144" cy="8.49144" r="8.49144" transform="matrix(-1 0 0 1 18.418 100.674)" fill="#BEBEBE"/>
<circle cx="8.49144" cy="8.49144" r="8.49144" transform="matrix(-1 0 0 1 36.9104 100.674)" fill="#BEBEBE"/>
<circle cx="8.49144" cy="8.49144" r="8.49144" transform="matrix(-1 0 0 1 55.403 82.1816)" fill="#BEBEBE"/>
<circle cx="8.49144" cy="8.49144" r="8.49144" transform="matrix(-1 0 0 1 18.418 82.1816)" fill="#BEBEBE"/>
<circle cx="8.49144" cy="8.49144" r="8.49144" transform="matrix(-1 0 0 1 36.9104 82.1816)" fill="#BEBEBE"/>
<circle cx="8.49144" cy="8.49144" r="8.49144" transform="matrix(-1 0 0 1 55.403 63.6885)" fill="#BEBEBE"/>
<circle cx="8.49144" cy="8.49144" r="8.49144" transform="matrix(-1 0 0 1 18.418 63.6885)" fill="#BEBEBE"/>
<circle cx="8.49144" cy="8.49144" r="8.49144" transform="matrix(-1 0 0 1 36.9104 63.6885)" fill="#BEBEBE"/>
</g>
</g>
<g opacity="0.2">
<mask id="mask5_2071_13619" style="mask-type:alpha" maskUnits="userSpaceOnUse" x="157" y="-2" width="56" height="56">
<rect width="55.1" height="55.1" transform="matrix(-1 0 0 1 212.4 -1.60059)" fill="#BEBEBE"/>
</mask>
<g mask="url(#mask5_2071_13619)">
<circle cx="8.49144" cy="8.49144" r="8.49144" transform="matrix(-1 0 0 1 220.703 -9.90332)" fill="#BEBEBE"/>
<circle cx="8.49144" cy="8.49144" r="8.49144" transform="matrix(-1 0 0 1 165.226 -9.90332)" fill="#BEBEBE"/>
<circle cx="8.49144" cy="8.49144" r="8.49144" transform="matrix(-1 0 0 1 183.718 -9.90332)" fill="#BEBEBE"/>
<circle cx="8.49144" cy="8.49144" r="8.49144" transform="matrix(-1 0 0 1 202.21 -9.90332)" fill="#BEBEBE"/>
<circle cx="8.49144" cy="8.49144" r="8.49144" transform="matrix(-1 0 0 1 220.703 45.5742)" fill="#BEBEBE"/>
<circle cx="8.49144" cy="8.49144" r="8.49144" transform="matrix(-1 0 0 1 165.226 45.5742)" fill="#BEBEBE"/>
<circle cx="8.49144" cy="8.49144" r="8.49144" transform="matrix(-1 0 0 1 183.718 45.5742)" fill="#BEBEBE"/>
<circle cx="8.49144" cy="8.49144" r="8.49144" transform="matrix(-1 0 0 1 202.21 45.5742)" fill="#BEBEBE"/>
<circle cx="8.49144" cy="8.49144" r="8.49144" transform="matrix(-1 0 0 1 220.703 27.082)" fill="#BEBEBE"/>
<circle cx="8.49144" cy="8.49144" r="8.49144" transform="matrix(-1 0 0 1 165.226 27.082)" fill="#BEBEBE"/>
<circle cx="8.49144" cy="8.49144" r="8.49144" transform="matrix(-1 0 0 1 183.718 27.082)" fill="#BEBEBE"/>
<circle cx="8.49144" cy="8.49144" r="8.49144" transform="matrix(-1 0 0 1 202.21 27.082)" fill="#BEBEBE"/>
<circle cx="8.49144" cy="8.49144" r="8.49144" transform="matrix(-1 0 0 1 220.703 8.58984)" fill="#BEBEBE"/>
<circle cx="8.49144" cy="8.49144" r="8.49144" transform="matrix(-1 0 0 1 165.226 8.58984)" fill="#BEBEBE"/>
<circle cx="8.49144" cy="8.49144" r="8.49144" transform="matrix(-1 0 0 1 183.718 8.58984)" fill="#BEBEBE"/>
<circle cx="8.49144" cy="8.49144" r="8.49144" transform="matrix(-1 0 0 1 202.21 8.58984)" fill="#BEBEBE"/>
</g>
<mask id="mask6_2071_13619" style="mask-type:alpha" maskUnits="userSpaceOnUse" x="157" y="53" width="56" height="56">
<rect width="55.1" height="55.1" transform="matrix(-1 0 0 1 212.4 53.499)" fill="#BEBEBE"/>
</mask>
<g mask="url(#mask6_2071_13619)">
<circle cx="8.49144" cy="8.49144" r="8.49144" transform="matrix(-1 0 0 1 220.703 45.1963)" fill="#BEBEBE"/>
<circle cx="8.49144" cy="8.49144" r="8.49144" transform="matrix(-1 0 0 1 165.226 45.1963)" fill="#BEBEBE"/>
<circle cx="8.49144" cy="8.49144" r="8.49144" transform="matrix(-1 0 0 1 183.718 45.1963)" fill="#BEBEBE"/>
<circle cx="8.49144" cy="8.49144" r="8.49144" transform="matrix(-1 0 0 1 202.21 45.1963)" fill="#BEBEBE"/>
<circle cx="8.49144" cy="8.49144" r="8.49144" transform="matrix(-1 0 0 1 220.703 100.674)" fill="#BEBEBE"/>
<circle cx="8.49144" cy="8.49144" r="8.49144" transform="matrix(-1 0 0 1 165.226 100.674)" fill="#BEBEBE"/>
<circle cx="8.49144" cy="8.49144" r="8.49144" transform="matrix(-1 0 0 1 183.718 100.674)" fill="#BEBEBE"/>
<circle cx="8.49144" cy="8.49144" r="8.49144" transform="matrix(-1 0 0 1 202.21 100.674)" fill="#BEBEBE"/>
<circle cx="8.49144" cy="8.49144" r="8.49144" transform="matrix(-1 0 0 1 220.703 82.1816)" fill="#BEBEBE"/>
<circle cx="8.49144" cy="8.49144" r="8.49144" transform="matrix(-1 0 0 1 165.226 82.1816)" fill="#BEBEBE"/>
<circle cx="8.49144" cy="8.49144" r="8.49144" transform="matrix(-1 0 0 1 183.718 82.1816)" fill="#BEBEBE"/>
<circle cx="8.49144" cy="8.49144" r="8.49144" transform="matrix(-1 0 0 1 202.21 82.1816)" fill="#BEBEBE"/>
<circle cx="8.49144" cy="8.49144" r="8.49144" transform="matrix(-1 0 0 1 220.703 63.6885)" fill="#BEBEBE"/>
<circle cx="8.49144" cy="8.49144" r="8.49144" transform="matrix(-1 0 0 1 165.226 63.6885)" fill="#BEBEBE"/>
<circle cx="8.49144" cy="8.49144" r="8.49144" transform="matrix(-1 0 0 1 183.718 63.6885)" fill="#BEBEBE"/>
<circle cx="8.49144" cy="8.49144" r="8.49144" transform="matrix(-1 0 0 1 202.21 63.6885)" fill="#BEBEBE"/>
</g>
<mask id="mask7_2071_13619" style="mask-type:alpha" maskUnits="userSpaceOnUse" x="102" y="-2" width="56" height="56">
<rect width="55.1" height="55.1" transform="matrix(-1 0 0 1 157.3 -1.60059)" fill="#BEBEBE"/>
</mask>
<g mask="url(#mask7_2071_13619)">
<circle cx="8.49144" cy="8.49144" r="8.49144" transform="matrix(-1 0 0 1 165.603 -9.90332)" fill="#BEBEBE"/>
<circle cx="8.49144" cy="8.49144" r="8.49144" transform="matrix(-1 0 0 1 110.126 -9.90332)" fill="#BEBEBE"/>
<circle cx="8.49144" cy="8.49144" r="8.49144" transform="matrix(-1 0 0 1 128.618 -9.90332)" fill="#BEBEBE"/>
<circle cx="8.49144" cy="8.49144" r="8.49144" transform="matrix(-1 0 0 1 147.11 -9.90332)" fill="#BEBEBE"/>
<circle cx="8.49144" cy="8.49144" r="8.49144" transform="matrix(-1 0 0 1 165.603 45.5742)" fill="#BEBEBE"/>
<circle cx="8.49144" cy="8.49144" r="8.49144" transform="matrix(-1 0 0 1 110.126 45.5742)" fill="#BEBEBE"/>
<circle cx="8.49144" cy="8.49144" r="8.49144" transform="matrix(-1 0 0 1 128.618 45.5742)" fill="#BEBEBE"/>
<circle cx="8.49144" cy="8.49144" r="8.49144" transform="matrix(-1 0 0 1 147.11 45.5742)" fill="#BEBEBE"/>
<circle cx="8.49144" cy="8.49144" r="8.49144" transform="matrix(-1 0 0 1 165.603 27.082)" fill="#BEBEBE"/>
<circle cx="8.49144" cy="8.49144" r="8.49144" transform="matrix(-1 0 0 1 110.126 27.082)" fill="#BEBEBE"/>
<circle cx="8.49144" cy="8.49144" r="8.49144" transform="matrix(-1 0 0 1 128.618 27.082)" fill="#BEBEBE"/>
<circle cx="8.49144" cy="8.49144" r="8.49144" transform="matrix(-1 0 0 1 147.11 27.082)" fill="#BEBEBE"/>
<circle cx="8.49144" cy="8.49144" r="8.49144" transform="matrix(-1 0 0 1 165.603 8.58984)" fill="#BEBEBE"/>
<circle cx="8.49144" cy="8.49144" r="8.49144" transform="matrix(-1 0 0 1 110.126 8.58984)" fill="#BEBEBE"/>
<circle cx="8.49144" cy="8.49144" r="8.49144" transform="matrix(-1 0 0 1 128.618 8.58984)" fill="#BEBEBE"/>
<circle cx="8.49144" cy="8.49144" r="8.49144" transform="matrix(-1 0 0 1 147.11 8.58984)" fill="#BEBEBE"/>
</g>
<mask id="mask8_2071_13619" style="mask-type:alpha" maskUnits="userSpaceOnUse" x="102" y="53" width="56" height="56">
<rect width="55.1" height="55.1" transform="matrix(-1 0 0 1 157.3 53.499)" fill="#BEBEBE"/>
</mask>
<g mask="url(#mask8_2071_13619)">
<circle cx="8.49144" cy="8.49144" r="8.49144" transform="matrix(-1 0 0 1 165.603 45.1963)" fill="#BEBEBE"/>
<circle cx="8.49144" cy="8.49144" r="8.49144" transform="matrix(-1 0 0 1 110.126 45.1963)" fill="#BEBEBE"/>
<circle cx="8.49144" cy="8.49144" r="8.49144" transform="matrix(-1 0 0 1 128.618 45.1963)" fill="#BEBEBE"/>
<circle cx="8.49144" cy="8.49144" r="8.49144" transform="matrix(-1 0 0 1 147.11 45.1963)" fill="#BEBEBE"/>
<circle cx="8.49144" cy="8.49144" r="8.49144" transform="matrix(-1 0 0 1 165.603 100.674)" fill="#BEBEBE"/>
<circle cx="8.49144" cy="8.49144" r="8.49144" transform="matrix(-1 0 0 1 110.126 100.674)" fill="#BEBEBE"/>
<circle cx="8.49144" cy="8.49144" r="8.49144" transform="matrix(-1 0 0 1 128.618 100.674)" fill="#BEBEBE"/>
<circle cx="8.49144" cy="8.49144" r="8.49144" transform="matrix(-1 0 0 1 147.11 100.674)" fill="#BEBEBE"/>
<circle cx="8.49144" cy="8.49144" r="8.49144" transform="matrix(-1 0 0 1 165.603 82.1816)" fill="#BEBEBE"/>
<circle cx="8.49144" cy="8.49144" r="8.49144" transform="matrix(-1 0 0 1 110.126 82.1816)" fill="#BEBEBE"/>
<circle cx="8.49144" cy="8.49144" r="8.49144" transform="matrix(-1 0 0 1 128.618 82.1816)" fill="#BEBEBE"/>
<circle cx="8.49144" cy="8.49144" r="8.49144" transform="matrix(-1 0 0 1 147.11 82.1816)" fill="#BEBEBE"/>
<circle cx="8.49144" cy="8.49144" r="8.49144" transform="matrix(-1 0 0 1 165.603 63.6885)" fill="#BEBEBE"/>
<circle cx="8.49144" cy="8.49144" r="8.49144" transform="matrix(-1 0 0 1 110.126 63.6885)" fill="#BEBEBE"/>
<circle cx="8.49144" cy="8.49144" r="8.49144" transform="matrix(-1 0 0 1 128.618 63.6885)" fill="#BEBEBE"/>
<circle cx="8.49144" cy="8.49144" r="8.49144" transform="matrix(-1 0 0 1 147.11 63.6885)" fill="#BEBEBE"/>
</g>
</g>
<g opacity="0.2">
<mask id="mask9_2071_13619" style="mask-type:alpha" maskUnits="userSpaceOnUse" x="267" y="-2" width="56" height="56">
<rect width="55.1" height="55.1" transform="matrix(-1 0 0 1 322.6 -1.60059)" fill="#BEBEBE"/>
</mask>
<g mask="url(#mask9_2071_13619)">
<circle cx="8.49144" cy="8.49144" r="8.49144" transform="matrix(-1 0 0 1 330.903 -9.90332)" fill="#BEBEBE"/>
<circle cx="8.49144" cy="8.49144" r="8.49144" transform="matrix(-1 0 0 1 275.426 -9.90332)" fill="#BEBEBE"/>
<circle cx="8.49144" cy="8.49144" r="8.49144" transform="matrix(-1 0 0 1 293.918 -9.90332)" fill="#BEBEBE"/>
<circle cx="8.49144" cy="8.49144" r="8.49144" transform="matrix(-1 0 0 1 312.411 -9.90332)" fill="#BEBEBE"/>
<circle cx="8.49144" cy="8.49144" r="8.49144" transform="matrix(-1 0 0 1 330.903 45.5742)" fill="#BEBEBE"/>
<circle cx="8.49144" cy="8.49144" r="8.49144" transform="matrix(-1 0 0 1 275.426 45.5742)" fill="#BEBEBE"/>
<circle cx="8.49144" cy="8.49144" r="8.49144" transform="matrix(-1 0 0 1 293.918 45.5742)" fill="#BEBEBE"/>
<circle cx="8.49144" cy="8.49144" r="8.49144" transform="matrix(-1 0 0 1 312.411 45.5742)" fill="#BEBEBE"/>
<circle cx="8.49144" cy="8.49144" r="8.49144" transform="matrix(-1 0 0 1 330.903 27.082)" fill="#BEBEBE"/>
<circle cx="8.49144" cy="8.49144" r="8.49144" transform="matrix(-1 0 0 1 275.426 27.082)" fill="#BEBEBE"/>
<circle cx="8.49144" cy="8.49144" r="8.49144" transform="matrix(-1 0 0 1 293.918 27.082)" fill="#BEBEBE"/>
<circle cx="8.49144" cy="8.49144" r="8.49144" transform="matrix(-1 0 0 1 312.411 27.082)" fill="#BEBEBE"/>
<circle cx="8.49144" cy="8.49144" r="8.49144" transform="matrix(-1 0 0 1 330.903 8.58984)" fill="#BEBEBE"/>
<circle cx="8.49144" cy="8.49144" r="8.49144" transform="matrix(-1 0 0 1 275.426 8.58984)" fill="#BEBEBE"/>
<circle cx="8.49144" cy="8.49144" r="8.49144" transform="matrix(-1 0 0 1 293.918 8.58984)" fill="#BEBEBE"/>
<circle cx="8.49144" cy="8.49144" r="8.49144" transform="matrix(-1 0 0 1 312.411 8.58984)" fill="#BEBEBE"/>
</g>
<mask id="mask10_2071_13619" style="mask-type:alpha" maskUnits="userSpaceOnUse" x="267" y="53" width="56" height="56">
<rect width="55.1" height="55.1" transform="matrix(-1 0 0 1 322.6 53.499)" fill="#BEBEBE"/>
</mask>
<g mask="url(#mask10_2071_13619)">
<circle cx="8.49144" cy="8.49144" r="8.49144" transform="matrix(-1 0 0 1 330.903 45.1963)" fill="#BEBEBE"/>
<circle cx="8.49144" cy="8.49144" r="8.49144" transform="matrix(-1 0 0 1 275.426 45.1963)" fill="#BEBEBE"/>
<circle cx="8.49144" cy="8.49144" r="8.49144" transform="matrix(-1 0 0 1 293.918 45.1963)" fill="#BEBEBE"/>
<circle cx="8.49144" cy="8.49144" r="8.49144" transform="matrix(-1 0 0 1 312.411 45.1963)" fill="#BEBEBE"/>
<circle cx="8.49144" cy="8.49144" r="8.49144" transform="matrix(-1 0 0 1 330.903 100.674)" fill="#BEBEBE"/>
<circle cx="8.49144" cy="8.49144" r="8.49144" transform="matrix(-1 0 0 1 275.426 100.674)" fill="#BEBEBE"/>
<circle cx="8.49144" cy="8.49144" r="8.49144" transform="matrix(-1 0 0 1 293.918 100.674)" fill="#BEBEBE"/>
<circle cx="8.49144" cy="8.49144" r="8.49144" transform="matrix(-1 0 0 1 312.411 100.674)" fill="#BEBEBE"/>
<circle cx="8.49144" cy="8.49144" r="8.49144" transform="matrix(-1 0 0 1 330.903 82.1816)" fill="#BEBEBE"/>
<circle cx="8.49144" cy="8.49144" r="8.49144" transform="matrix(-1 0 0 1 275.426 82.1816)" fill="#BEBEBE"/>
<circle cx="8.49144" cy="8.49144" r="8.49144" transform="matrix(-1 0 0 1 293.918 82.1816)" fill="#BEBEBE"/>
<circle cx="8.49144" cy="8.49144" r="8.49144" transform="matrix(-1 0 0 1 312.411 82.1816)" fill="#BEBEBE"/>
<circle cx="8.49144" cy="8.49144" r="8.49144" transform="matrix(-1 0 0 1 330.903 63.6885)" fill="#BEBEBE"/>
<circle cx="8.49144" cy="8.49144" r="8.49144" transform="matrix(-1 0 0 1 275.426 63.6885)" fill="#BEBEBE"/>
<circle cx="8.49144" cy="8.49144" r="8.49144" transform="matrix(-1 0 0 1 293.918 63.6885)" fill="#BEBEBE"/>
<circle cx="8.49144" cy="8.49144" r="8.49144" transform="matrix(-1 0 0 1 312.411 63.6885)" fill="#BEBEBE"/>
</g>
<mask id="mask11_2071_13619" style="mask-type:alpha" maskUnits="userSpaceOnUse" x="212" y="-2" width="56" height="56">
<rect width="55.1" height="55.1" transform="matrix(-1 0 0 1 267.5 -1.60059)" fill="#BEBEBE"/>
</mask>
<g mask="url(#mask11_2071_13619)">
<circle cx="8.49144" cy="8.49144" r="8.49144" transform="matrix(-1 0 0 1 275.803 -9.90332)" fill="#BEBEBE"/>
<circle cx="8.49144" cy="8.49144" r="8.49144" transform="matrix(-1 0 0 1 220.326 -9.90332)" fill="#BEBEBE"/>
<circle cx="8.49144" cy="8.49144" r="8.49144" transform="matrix(-1 0 0 1 238.818 -9.90332)" fill="#BEBEBE"/>
<circle cx="8.49144" cy="8.49144" r="8.49144" transform="matrix(-1 0 0 1 257.31 -9.90332)" fill="#BEBEBE"/>
<circle cx="8.49144" cy="8.49144" r="8.49144" transform="matrix(-1 0 0 1 275.803 45.5742)" fill="#BEBEBE"/>
<circle cx="8.49144" cy="8.49144" r="8.49144" transform="matrix(-1 0 0 1 220.326 45.5742)" fill="#BEBEBE"/>
<circle cx="8.49144" cy="8.49144" r="8.49144" transform="matrix(-1 0 0 1 238.818 45.5742)" fill="#BEBEBE"/>
<circle cx="8.49144" cy="8.49144" r="8.49144" transform="matrix(-1 0 0 1 257.31 45.5742)" fill="#BEBEBE"/>
<circle cx="8.49144" cy="8.49144" r="8.49144" transform="matrix(-1 0 0 1 275.803 27.082)" fill="#BEBEBE"/>
<circle cx="8.49144" cy="8.49144" r="8.49144" transform="matrix(-1 0 0 1 220.326 27.082)" fill="#BEBEBE"/>
<circle cx="8.49144" cy="8.49144" r="8.49144" transform="matrix(-1 0 0 1 238.818 27.082)" fill="#BEBEBE"/>
<circle cx="8.49144" cy="8.49144" r="8.49144" transform="matrix(-1 0 0 1 257.31 27.082)" fill="#BEBEBE"/>
<circle cx="8.49144" cy="8.49144" r="8.49144" transform="matrix(-1 0 0 1 275.803 8.58984)" fill="#BEBEBE"/>
<circle cx="8.49144" cy="8.49144" r="8.49144" transform="matrix(-1 0 0 1 220.326 8.58984)" fill="#BEBEBE"/>
<circle cx="8.49144" cy="8.49144" r="8.49144" transform="matrix(-1 0 0 1 238.818 8.58984)" fill="#BEBEBE"/>
<circle cx="8.49144" cy="8.49144" r="8.49144" transform="matrix(-1 0 0 1 257.31 8.58984)" fill="#BEBEBE"/>
</g>
<mask id="mask12_2071_13619" style="mask-type:alpha" maskUnits="userSpaceOnUse" x="212" y="53" width="56" height="56">
<rect width="55.1" height="55.1" transform="matrix(-1 0 0 1 267.5 53.499)" fill="#BEBEBE"/>
</mask>
<g mask="url(#mask12_2071_13619)">
<circle cx="8.49144" cy="8.49144" r="8.49144" transform="matrix(-1 0 0 1 275.803 45.1963)" fill="#BEBEBE"/>
<circle cx="8.49144" cy="8.49144" r="8.49144" transform="matrix(-1 0 0 1 220.326 45.1963)" fill="#BEBEBE"/>
<circle cx="8.49144" cy="8.49144" r="8.49144" transform="matrix(-1 0 0 1 238.818 45.1963)" fill="#BEBEBE"/>
<circle cx="8.49144" cy="8.49144" r="8.49144" transform="matrix(-1 0 0 1 257.31 45.1963)" fill="#BEBEBE"/>
<circle cx="8.49144" cy="8.49144" r="8.49144" transform="matrix(-1 0 0 1 275.803 100.674)" fill="#BEBEBE"/>
<circle cx="8.49144" cy="8.49144" r="8.49144" transform="matrix(-1 0 0 1 220.326 100.674)" fill="#BEBEBE"/>
<circle cx="8.49144" cy="8.49144" r="8.49144" transform="matrix(-1 0 0 1 238.818 100.674)" fill="#BEBEBE"/>
<circle cx="8.49144" cy="8.49144" r="8.49144" transform="matrix(-1 0 0 1 257.31 100.674)" fill="#BEBEBE"/>
<circle cx="8.49144" cy="8.49144" r="8.49144" transform="matrix(-1 0 0 1 275.803 82.1816)" fill="#BEBEBE"/>
<circle cx="8.49144" cy="8.49144" r="8.49144" transform="matrix(-1 0 0 1 220.326 82.1816)" fill="#BEBEBE"/>
<circle cx="8.49144" cy="8.49144" r="8.49144" transform="matrix(-1 0 0 1 238.818 82.1816)" fill="#BEBEBE"/>
<circle cx="8.49144" cy="8.49144" r="8.49144" transform="matrix(-1 0 0 1 257.31 82.1816)" fill="#BEBEBE"/>
<circle cx="8.49144" cy="8.49144" r="8.49144" transform="matrix(-1 0 0 1 275.803 63.6885)" fill="#BEBEBE"/>
<circle cx="8.49144" cy="8.49144" r="8.49144" transform="matrix(-1 0 0 1 220.326 63.6885)" fill="#BEBEBE"/>
<circle cx="8.49144" cy="8.49144" r="8.49144" transform="matrix(-1 0 0 1 238.818 63.6885)" fill="#BEBEBE"/>
<circle cx="8.49144" cy="8.49144" r="8.49144" transform="matrix(-1 0 0 1 257.31 63.6885)" fill="#BEBEBE"/>
</g>
</g>
<g opacity="0.2">
<mask id="mask13_2071_13619" style="mask-type:alpha" maskUnits="userSpaceOnUse" x="377" y="-2" width="56" height="56">
<rect width="55.1" height="55.1" transform="matrix(-1 0 0 1 432.8 -1.60059)" fill="#BEBEBE"/>
</mask>
<g mask="url(#mask13_2071_13619)">
<circle cx="8.49144" cy="8.49144" r="8.49144" transform="matrix(-1 0 0 1 385.626 -9.90332)" fill="#BEBEBE"/>
<circle cx="8.49144" cy="8.49144" r="8.49144" transform="matrix(-1 0 0 1 385.626 45.5742)" fill="#BEBEBE"/>
<circle cx="8.49144" cy="8.49144" r="8.49144" transform="matrix(-1 0 0 1 385.626 27.082)" fill="#BEBEBE"/>
<circle cx="8.49144" cy="8.49144" r="8.49144" transform="matrix(-1 0 0 1 385.626 8.58984)" fill="#BEBEBE"/>
</g>
<mask id="mask14_2071_13619" style="mask-type:alpha" maskUnits="userSpaceOnUse" x="377" y="53" width="56" height="56">
<rect width="55.1" height="55.1" transform="matrix(-1 0 0 1 432.8 53.499)" fill="#BEBEBE"/>
</mask>
<g mask="url(#mask14_2071_13619)">
<circle cx="8.49144" cy="8.49144" r="8.49144" transform="matrix(-1 0 0 1 385.626 45.1963)" fill="#BEBEBE"/>
<circle cx="8.49144" cy="8.49144" r="8.49144" transform="matrix(-1 0 0 1 385.626 100.674)" fill="#BEBEBE"/>
<circle cx="8.49144" cy="8.49144" r="8.49144" transform="matrix(-1 0 0 1 385.626 82.1816)" fill="#BEBEBE"/>
<circle cx="8.49144" cy="8.49144" r="8.49144" transform="matrix(-1 0 0 1 385.626 63.6885)" fill="#BEBEBE"/>
</g>
<mask id="mask15_2071_13619" style="mask-type:alpha" maskUnits="userSpaceOnUse" x="322" y="-2" width="56" height="56">
<rect width="55.1" height="55.1" transform="matrix(-1 0 0 1 377.7 -1.60059)" fill="#BEBEBE"/>
</mask>
<g mask="url(#mask15_2071_13619)">
<circle cx="8.49144" cy="8.49144" r="8.49144" transform="matrix(-1 0 0 1 386.003 -9.90332)" fill="#BEBEBE"/>
<circle cx="8.49144" cy="8.49144" r="8.49144" transform="matrix(-1 0 0 1 330.526 -9.90332)" fill="#BEBEBE"/>
<circle cx="8.49144" cy="8.49144" r="8.49144" transform="matrix(-1 0 0 1 349.018 -9.90332)" fill="#BEBEBE"/>
<circle cx="8.49144" cy="8.49144" r="8.49144" transform="matrix(-1 0 0 1 367.51 -9.90332)" fill="#BEBEBE"/>
<circle cx="8.49144" cy="8.49144" r="8.49144" transform="matrix(-1 0 0 1 386.003 45.5742)" fill="#BEBEBE"/>
<circle cx="8.49144" cy="8.49144" r="8.49144" transform="matrix(-1 0 0 1 330.526 45.5742)" fill="#BEBEBE"/>
<circle cx="8.49144" cy="8.49144" r="8.49144" transform="matrix(-1 0 0 1 349.018 45.5742)" fill="#BEBEBE"/>
<circle cx="8.49144" cy="8.49144" r="8.49144" transform="matrix(-1 0 0 1 367.51 45.5742)" fill="#BEBEBE"/>
<circle cx="8.49144" cy="8.49144" r="8.49144" transform="matrix(-1 0 0 1 386.003 27.082)" fill="#BEBEBE"/>
<circle cx="8.49144" cy="8.49144" r="8.49144" transform="matrix(-1 0 0 1 330.526 27.082)" fill="#BEBEBE"/>
<circle cx="8.49144" cy="8.49144" r="8.49144" transform="matrix(-1 0 0 1 349.018 27.082)" fill="#BEBEBE"/>
<circle cx="8.49144" cy="8.49144" r="8.49144" transform="matrix(-1 0 0 1 367.51 27.082)" fill="#BEBEBE"/>
<circle cx="8.49144" cy="8.49144" r="8.49144" transform="matrix(-1 0 0 1 386.003 8.58984)" fill="#BEBEBE"/>
<circle cx="8.49144" cy="8.49144" r="8.49144" transform="matrix(-1 0 0 1 330.526 8.58984)" fill="#BEBEBE"/>
<circle cx="8.49144" cy="8.49144" r="8.49144" transform="matrix(-1 0 0 1 349.018 8.58984)" fill="#BEBEBE"/>
<circle cx="8.49144" cy="8.49144" r="8.49144" transform="matrix(-1 0 0 1 367.51 8.58984)" fill="#BEBEBE"/>
</g>
<mask id="mask16_2071_13619" style="mask-type:alpha" maskUnits="userSpaceOnUse" x="322" y="53" width="56" height="56">
<rect width="55.1" height="55.1" transform="matrix(-1 0 0 1 377.7 53.499)" fill="#BEBEBE"/>
</mask>
<g mask="url(#mask16_2071_13619)">
<circle cx="8.49144" cy="8.49144" r="8.49144" transform="matrix(-1 0 0 1 386.003 45.1963)" fill="#BEBEBE"/>
<circle cx="8.49144" cy="8.49144" r="8.49144" transform="matrix(-1 0 0 1 330.526 45.1963)" fill="#BEBEBE"/>
<circle cx="8.49144" cy="8.49144" r="8.49144" transform="matrix(-1 0 0 1 349.018 45.1963)" fill="#BEBEBE"/>
<circle cx="8.49144" cy="8.49144" r="8.49144" transform="matrix(-1 0 0 1 367.51 45.1963)" fill="#BEBEBE"/>
<circle cx="8.49144" cy="8.49144" r="8.49144" transform="matrix(-1 0 0 1 386.003 100.674)" fill="#BEBEBE"/>
<circle cx="8.49144" cy="8.49144" r="8.49144" transform="matrix(-1 0 0 1 330.526 100.674)" fill="#BEBEBE"/>
<circle cx="8.49144" cy="8.49144" r="8.49144" transform="matrix(-1 0 0 1 349.018 100.674)" fill="#BEBEBE"/>
<circle cx="8.49144" cy="8.49144" r="8.49144" transform="matrix(-1 0 0 1 367.51 100.674)" fill="#BEBEBE"/>
<circle cx="8.49144" cy="8.49144" r="8.49144" transform="matrix(-1 0 0 1 386.003 82.1816)" fill="#BEBEBE"/>
<circle cx="8.49144" cy="8.49144" r="8.49144" transform="matrix(-1 0 0 1 330.526 82.1816)" fill="#BEBEBE"/>
<circle cx="8.49144" cy="8.49144" r="8.49144" transform="matrix(-1 0 0 1 349.018 82.1816)" fill="#BEBEBE"/>
<circle cx="8.49144" cy="8.49144" r="8.49144" transform="matrix(-1 0 0 1 367.51 82.1816)" fill="#BEBEBE"/>
<circle cx="8.49144" cy="8.49144" r="8.49144" transform="matrix(-1 0 0 1 386.003 63.6885)" fill="#BEBEBE"/>
<circle cx="8.49144" cy="8.49144" r="8.49144" transform="matrix(-1 0 0 1 330.526 63.6885)" fill="#BEBEBE"/>
<circle cx="8.49144" cy="8.49144" r="8.49144" transform="matrix(-1 0 0 1 349.018 63.6885)" fill="#BEBEBE"/>
<circle cx="8.49144" cy="8.49144" r="8.49144" transform="matrix(-1 0 0 1 367.51 63.6885)" fill="#BEBEBE"/>
</g>
</g>
</g>
</svg>
